<svg width="420" height="81" viewBox="0 0 420 81" fill="none" xmlns="http://www.w3.org/2000/svg">
<path d="M106.719 55.0703C106.047 55.0703 105.516 55.0078 105.125 54.8828C104.734 54.7422 104.492 54.5156 104.398 54.2031L95.3984 27.4141C95.2734 27.0391 95.2109 26.7891 95.2109 26.6641C95.2109 26.0391 96.0625 25.7266 97.7656 25.7266H99.125C100.516 25.7266 101.336 26.1406 101.586 26.9688L107.211 44.9922L107.68 46.4453H107.844L108.312 44.9922L114.078 26.9688C114.359 26.1406 115.188 25.7266 116.562 25.7266H117.828C119.5 25.7266 120.336 26.0391 120.336 26.6641C120.336 26.9453 120.289 27.1953 120.195 27.4141L111.195 54.2031C111.102 54.5156 110.852 54.7422 110.445 54.8828C110.055 55.0078 109.531 55.0703 108.875 55.0703H106.719ZM125.703 29.6172C124.828 29.6172 124.188 29.5078 123.781 29.2891C123.391 29.0703 123.195 28.7344 123.195 28.2812V24.9297C123.195 24.4766 123.398 24.1406 123.805 23.9219C124.211 23.6875 124.844 23.5703 125.703 23.5703H126.852C127.711 23.5703 128.344 23.6875 128.75 23.9219C129.156 24.1406 129.359 24.4766 129.359 24.9297V28.2812C129.359 28.7344 129.156 29.0703 128.75 29.2891C128.359 29.5078 127.727 29.6172 126.852 29.6172H125.703ZM125.703 55.0703C124.031 55.0703 123.195 54.6328 123.195 53.7578V34.4453C123.195 34.0078 123.398 33.6797 123.805 33.4609C124.211 33.2422 124.844 33.1328 125.703 33.1328H126.852C127.711 33.1328 128.344 33.2422 128.75 33.4609C129.156 33.6797 129.359 34.0078 129.359 34.4453V53.7578C129.359 54.6328 128.523 55.0703 126.852 55.0703H125.703ZM140 55.3516C138.922 55.3516 137.852 55.2344 136.789 55C135.727 54.7656 134.844 54.4297 134.141 53.9922C133.453 53.5547 133.109 53.0547 133.109 52.4922C133.109 52.1484 133.234 51.7188 133.484 51.2031C133.734 50.6875 134.031 50.2422 134.375 49.8672C134.734 49.4766 135.047 49.2812 135.312 49.2812C135.453 49.2812 135.758 49.3906 136.227 49.6094C136.773 49.8594 137.297 50.0625 137.797 50.2188C138.297 50.375 138.867 50.4531 139.508 50.4531C140.305 50.4531 140.906 50.3047 141.312 50.0078C141.719 49.7109 141.922 49.2734 141.922 48.6953C141.922 48.2578 141.797 47.8984 141.547 47.6172C141.312 47.3203 141.008 47.0781 140.633 46.8906C140.258 46.7031 139.727 46.4766 139.039 46.2109L138.359 45.9531C137.469 45.6094 136.688 45.2188 136.016 44.7812C135.344 44.3438 134.773 43.7109 134.305 42.8828C133.836 42.0391 133.602 40.9766 133.602 39.6953C133.602 38.2734 133.906 37.0547 134.516 36.0391C135.141 35.0078 136.023 34.2266 137.164 33.6953C138.305 33.1484 139.648 32.875 141.195 32.875C142.086 32.875 143.016 32.9609 143.984 33.1328C144.953 33.3047 145.766 33.5703 146.422 33.9297C147.094 34.2891 147.43 34.7422 147.43 35.2891C147.43 35.6016 147.328 36.0234 147.125 36.5547C146.938 37.0859 146.703 37.5547 146.422 37.9609C146.141 38.3672 145.875 38.5703 145.625 38.5703C145.547 38.5703 145.328 38.5 144.969 38.3594C144.484 38.1562 144.016 38 143.562 37.8906C143.125 37.7656 142.617 37.7031 142.039 37.7031C140.57 37.7031 139.836 38.1875 139.836 39.1562C139.836 39.5938 139.969 39.9688 140.234 40.2812C140.516 40.5938 140.859 40.8516 141.266 41.0547C141.672 41.2578 142.242 41.5 142.977 41.7812C143.82 42.125 144.344 42.3438 144.547 42.4375C145.641 42.9844 146.516 43.7109 147.172 44.6172C147.844 45.5078 148.18 46.7031 148.18 48.2031C148.18 49.625 147.859 50.875 147.219 51.9531C146.578 53.0312 145.641 53.8672 144.406 54.4609C143.172 55.0547 141.703 55.3516 140 55.3516ZM153.969 29.6172C153.094 29.6172 152.453 29.5078 152.047 29.2891C151.656 29.0703 151.461 28.7344 151.461 28.2812V24.9297C151.461 24.4766 151.664 24.1406 152.07 23.9219C152.477 23.6875 153.109 23.5703 153.969 23.5703H155.117C155.977 23.5703 156.609 23.6875 157.016 23.9219C157.422 24.1406 157.625 24.4766 157.625 24.9297V28.2812C157.625 28.7344 157.422 29.0703 157.016 29.2891C156.625 29.5078 155.992 29.6172 155.117 29.6172H153.969ZM153.969 55.0703C152.297 55.0703 151.461 54.6328 151.461 53.7578V34.4453C151.461 34.0078 151.664 33.6797 152.07 33.4609C152.477 33.2422 153.109 33.1328 153.969 33.1328H155.117C155.977 33.1328 156.609 33.2422 157.016 33.4609C157.422 33.6797 157.625 34.0078 157.625 34.4453V53.7578C157.625 54.6328 156.789 55.0703 155.117 55.0703H153.969ZM174.219 55.3516C172.984 55.3516 171.875 55.0625 170.891 54.4844C169.906 53.8906 169.164 53.1328 168.664 52.2109L168.547 52.7031C168.406 53.3125 168.297 53.7422 168.219 53.9922C168.109 54.4297 167.867 54.7188 167.492 54.8594C167.117 55 166.562 55.0703 165.828 55.0703H165.336C163.664 55.0703 162.828 54.6328 162.828 53.7578V24.9297C162.828 24.4766 163.031 24.1406 163.438 23.9219C163.844 23.6875 164.477 23.5703 165.336 23.5703H166.484C168.156 23.5703 168.992 24.0234 168.992 24.9297V34.1641C170.164 33.3047 171.578 32.875 173.234 32.875C175.078 32.875 176.656 33.3359 177.969 34.2578C179.297 35.1641 180.305 36.4609 180.992 38.1484C181.68 39.8359 182.023 41.8125 182.023 44.0781C182.023 46.4375 181.688 48.4688 181.016 50.1719C180.359 51.8594 179.438 53.1484 178.25 54.0391C177.078 54.9141 175.734 55.3516 174.219 55.3516ZM172.414 50.2891C174.648 50.2891 175.766 48.2188 175.766 44.0781C175.766 39.8438 174.477 37.7266 171.898 37.7266C170.945 37.7266 169.977 37.9922 168.992 38.5234V47.8281C169.945 49.4688 171.086 50.2891 172.414 50.2891ZM188.75 29.6172C187.875 29.6172 187.234 29.5078 186.828 29.2891C186.438 29.0703 186.242 28.7344 186.242 28.2812V24.9297C186.242 24.4766 186.445 24.1406 186.852 23.9219C187.258 23.6875 187.891 23.5703 188.75 23.5703H189.898C190.758 23.5703 191.391 23.6875 191.797 23.9219C192.203 24.1406 192.406 24.4766 192.406 24.9297V28.2812C192.406 28.7344 192.203 29.0703 191.797 29.2891C191.406 29.5078 190.773 29.6172 189.898 29.6172H188.75ZM188.75 55.0703C187.078 55.0703 186.242 54.6328 186.242 53.7578V34.4453C186.242 34.0078 186.445 33.6797 186.852 33.4609C187.258 33.2422 187.891 33.1328 188.75 33.1328H189.898C190.758 33.1328 191.391 33.2422 191.797 33.4609C192.203 33.6797 192.406 34.0078 192.406 34.4453V53.7578C192.406 54.6328 191.57 55.0703 189.898 55.0703H188.75ZM203.562 55.3516C201.578 55.3516 200.062 54.7969 199.016 53.6875C197.984 52.5625 197.469 50.8594 197.469 48.5781V24.9297C197.469 24.0234 198.305 23.5703 199.977 23.5703H201.148C202.008 23.5703 202.633 23.6875 203.023 23.9219C203.43 24.1406 203.633 24.4766 203.633 24.9297V48.6484C203.633 49.2891 203.75 49.75 203.984 50.0312C204.219 50.3125 204.609 50.4531 205.156 50.4531C205.297 50.4531 205.508 50.4219 205.789 50.3594C205.867 50.3438 205.945 50.3281 206.023 50.3125C206.102 50.2969 206.188 50.2891 206.281 50.2891C206.516 50.2891 206.727 50.5 206.914 50.9219C207.117 51.3281 207.273 51.7891 207.383 52.3047C207.492 52.8047 207.547 53.1328 207.547 53.2891C207.547 54.6641 206.219 55.3516 203.562 55.3516ZM212.234 29.6172C211.359 29.6172 210.719 29.5078 210.312 29.2891C209.922 29.0703 209.727 28.7344 209.727 28.2812V24.9297C209.727 24.4766 209.93 24.1406 210.336 23.9219C210.742 23.6875 211.375 23.5703 212.234 23.5703H213.383C214.242 23.5703 214.875 23.6875 215.281 23.9219C215.688 24.1406 215.891 24.4766 215.891 24.9297V28.2812C215.891 28.7344 215.688 29.0703 215.281 29.2891C214.891 29.5078 214.258 29.6172 213.383 29.6172H212.234ZM212.234 55.0703C210.562 55.0703 209.727 54.6328 209.727 53.7578V34.4453C209.727 34.0078 209.93 33.6797 210.336 33.4609C210.742 33.2422 211.375 33.1328 212.234 33.1328H213.383C214.242 33.1328 214.875 33.2422 215.281 33.4609C215.688 33.6797 215.891 34.0078 215.891 34.4453V53.7578C215.891 54.6328 215.055 55.0703 213.383 55.0703H212.234ZM227.633 55.3516C225.648 55.3516 224.133 54.7969 223.086 53.6875C222.055 52.5625 221.539 50.8594 221.539 48.5781V38.0781H220.883C220.445 38.0781 220.125 37.9141 219.922 37.5859C219.734 37.2578 219.641 36.7266 219.641 35.9922V35.2891C219.641 34.5547 219.734 34.0234 219.922 33.6953C220.125 33.3672 220.445 33.2031 220.883 33.2031H221.539L222.078 29.2422C222.203 28.3672 222.953 27.9297 224.328 27.9297H225.641C226.359 27.9297 226.883 28.0391 227.211 28.2578C227.555 28.4766 227.727 28.8047 227.727 29.2422V33.2031H229.766C230.203 33.2031 230.516 33.3672 230.703 33.6953C230.906 34.0234 231.008 34.5547 231.008 35.2891V35.9922C231.008 36.7266 230.906 37.2578 230.703 37.5859C230.516 37.9141 230.203 38.0781 229.766 38.0781H227.727V48.6484C227.727 49.2891 227.836 49.75 228.055 50.0312C228.289 50.3125 228.672 50.4531 229.203 50.4531C229.359 50.4531 229.57 50.4297 229.836 50.3828C230.102 50.3203 230.266 50.2891 230.328 50.2891C230.578 50.2891 230.797 50.5 230.984 50.9219C231.188 51.3281 231.344 51.7812 231.453 52.2812C231.578 52.7812 231.641 53.1172 231.641 53.2891C231.641 54.6641 230.305 55.3516 227.633 55.3516ZM239.797 63.6016C238.125 63.6016 237.289 63.3047 237.289 62.7109C237.289 62.4766 237.344 62.2266 237.453 61.9609L240.102 55L233.211 34.7969C233.195 34.7031 233.164 34.5781 233.117 34.4219C233.07 34.25 233.047 34.125 233.047 34.0469C233.047 33.7344 233.25 33.5078 233.656 33.3672C234.062 33.2109 234.703 33.1328 235.578 33.1328H236.938C237.594 33.1328 238.117 33.2031 238.508 33.3438C238.914 33.4688 239.164 33.6875 239.258 34L241.695 41.6875C241.852 42.1719 242.047 42.9531 242.281 44.0312C242.516 45.0938 242.656 45.7266 242.703 45.9297L242.867 46.7266H243.055C243.07 46.6172 243.109 46.4531 243.172 46.2344C243.688 43.7344 244.039 42.2188 244.227 41.6875L246.664 34C246.773 33.6719 247.023 33.4453 247.414 33.3203C247.82 33.1953 248.352 33.1328 249.008 33.1328H250.016C250.875 33.1328 251.5 33.2109 251.891 33.3672C252.297 33.5078 252.5 33.7344 252.5 34.0469C252.5 34.2031 252.461 34.4531 252.383 34.7969L242.82 62.7109C242.617 63.3047 241.844 63.6016 240.5 63.6016H239.797ZM256.109 55.0703C254.438 55.0703 253.602 54.6328 253.602 53.7578V49.9141C253.602 49.0234 254.438 48.5781 256.109 48.5781H257.445C258.305 48.5781 258.93 48.6953 259.32 48.9297C259.727 49.1484 259.93 49.4766 259.93 49.9141V53.7578C259.93 54.6328 259.102 55.0703 257.445 55.0703H256.109ZM266.375 55.0703C264.703 55.0703 263.867 54.6328 263.867 53.7578V27.0859C263.867 26.6328 264.07 26.2969 264.477 26.0781C264.883 25.8438 265.516 25.7266 266.375 25.7266H268.156C268.828 25.7266 269.383 25.8047 269.82 25.9609C270.258 26.1172 270.617 26.4219 270.898 26.875L280.742 42.0391L281.867 43.7266V27.0859C281.867 26.6328 282.07 26.2969 282.477 26.0781C282.883 25.8438 283.516 25.7266 284.375 25.7266H285.57C286.43 25.7266 287.055 25.8438 287.445 26.0781C287.852 26.2969 288.055 26.6328 288.055 27.0859V53.7578C288.055 54.6328 287.227 55.0703 285.57 55.0703H283.977C283.289 55.0703 282.734 55 282.312 54.8594C281.891 54.7031 281.539 54.4062 281.258 53.9688L270.945 38.1953L270.055 36.8828V53.7578C270.055 54.6328 269.227 55.0703 267.57 55.0703H266.375ZM303.57 55.3516C299.914 55.3516 297.188 54.375 295.391 52.4219C293.594 50.4531 292.695 47.7266 292.695 44.2422C292.695 40.3203 293.594 37.4453 295.391 35.6172C297.188 33.7891 299.664 32.875 302.82 32.875C304.914 32.875 306.625 33.3516 307.953 34.3047C309.297 35.2578 310.273 36.5391 310.883 38.1484C311.508 39.7578 311.82 41.5781 311.82 43.6094C311.82 43.8438 311.68 44.1562 311.398 44.5469C311.133 44.9375 310.828 45.2891 310.484 45.6016C310.141 45.9141 309.875 46.0703 309.688 46.0703H299.07C299.211 47.6641 299.68 48.7969 300.477 49.4688C301.289 50.125 302.414 50.4531 303.852 50.4531C304.633 50.4531 305.336 50.3672 305.961 50.1953C306.602 50.0078 307.281 49.7656 308 49.4688C308.438 49.2656 308.734 49.1641 308.891 49.1641C309.172 49.1641 309.477 49.3672 309.805 49.7734C310.148 50.1641 310.438 50.6172 310.672 51.1328C310.922 51.6484 311.047 52.0469 311.047 52.3281C311.047 52.9688 310.609 53.5156 309.734 53.9688C308.875 54.4219 307.852 54.7656 306.664 55C305.492 55.2344 304.461 55.3516 303.57 55.3516ZM305.82 41.9688C305.82 40.6875 305.57 39.6641 305.07 38.8984C304.57 38.1172 303.82 37.7266 302.82 37.7266C300.758 37.7266 299.508 39.1406 299.07 41.9688H305.82ZM322.742 55.3516C320.758 55.3516 319.242 54.7969 318.195 53.6875C317.164 52.5625 316.648 50.8594 316.648 48.5781V38.0781H315.992C315.555 38.0781 315.234 37.9141 315.031 37.5859C314.844 37.2578 314.75 36.7266 314.75 35.9922V35.2891C314.75 34.5547 314.844 34.0234 315.031 33.6953C315.234 33.3672 315.555 33.2031 315.992 33.2031H316.648L317.188 29.2422C317.312 28.3672 318.062 27.9297 319.438 27.9297H320.75C321.469 27.9297 321.992 28.0391 322.32 28.2578C322.664 28.4766 322.836 28.8047 322.836 29.2422V33.2031H324.875C325.312 33.2031 325.625 33.3672 325.812 33.6953C326.016 34.0234 326.117 34.5547 326.117 35.2891V35.9922C326.117 36.7266 326.016 37.2578 325.812 37.5859C325.625 37.9141 325.312 38.0781 324.875 38.0781H322.836V48.6484C322.836 49.2891 322.945 49.75 323.164 50.0312C323.398 50.3125 323.781 50.4531 324.312 50.4531C324.469 50.4531 324.68 50.4297 324.945 50.3828C325.211 50.3203 325.375 50.2891 325.438 50.2891C325.688 50.2891 325.906 50.5 326.094 50.9219C326.297 51.3281 326.453 51.7812 326.562 52.2812C326.688 52.7812 326.75 53.1172 326.75 53.2891C326.75 54.6641 325.414 55.3516 322.742 55.3516ZM336.125 55.0703C334.734 55.0703 333.961 54.7812 333.805 54.2031L328.578 34.8438C328.516 34.6562 328.484 34.4453 328.484 34.2109C328.484 33.4922 329.352 33.1328 331.086 33.1328C332.211 33.1328 333.016 33.2031 333.5 33.3438C334 33.4688 334.289 33.6875 334.367 34L337.203 44.9922C337.266 45.2109 337.344 45.5391 337.438 45.9766L337.648 46.8438C337.82 46.1406 337.992 45.4844 338.164 44.875L340.812 34C340.922 33.4219 341.695 33.1328 343.133 33.1328H344.117C344.742 33.1328 345.266 33.2109 345.688 33.3672C346.109 33.5078 346.352 33.7188 346.414 34L349.086 45.1328C349.102 45.2578 349.164 45.5078 349.273 45.8828L349.484 46.8438L349.977 44.9922L352.859 34C353.047 33.4219 353.867 33.1328 355.32 33.1328C357.039 33.1328 357.898 33.4922 357.898 34.2109C357.898 34.2578 357.867 34.4688 357.805 34.8438L352.906 54.2031C352.828 54.4844 352.578 54.7031 352.156 54.8594C351.734 55 351.219 55.0703 350.609 55.0703H348.57C347.195 55.0703 346.438 54.7812 346.297 54.2031L343.742 44.2891C343.633 43.8984 343.484 43.2969 343.297 42.4844L342.805 44.3359L340.438 54.2031C340.375 54.4844 340.133 54.7031 339.711 54.8594C339.289 55 338.773 55.0703 338.164 55.0703H336.125ZM370.742 55.3516C367.445 55.3516 364.93 54.3828 363.195 52.4453C361.477 50.5078 360.617 47.7188 360.617 44.0781C360.617 40.4531 361.477 37.6797 363.195 35.7578C364.93 33.8359 367.445 32.875 370.742 32.875C374.039 32.875 376.539 33.8359 378.242 35.7578C379.961 37.6641 380.82 40.4375 380.82 44.0781C380.82 47.7188 379.961 50.5078 378.242 52.4453C376.539 54.3828 374.039 55.3516 370.742 55.3516ZM370.742 50.4531C372.055 50.4531 373.016 49.9219 373.625 48.8594C374.25 47.7969 374.562 46.2031 374.562 44.0781C374.562 41.9688 374.25 40.3828 373.625 39.3203C373.016 38.2578 372.055 37.7266 370.742 37.7266C368.148 37.7266 366.852 39.8438 366.852 44.0781C366.852 46.1875 367.164 47.7812 367.789 48.8594C368.43 49.9219 369.414 50.4531 370.742 50.4531ZM387.664 55.0703C386.008 55.0703 385.18 54.6328 385.18 53.7578V40.5391C385.18 38.5391 385.047 36.875 384.781 35.5469C384.703 35.125 384.664 34.8281 384.664 34.6562C384.664 34.3438 384.953 34.0938 385.531 33.9062C386.125 33.7031 386.789 33.5547 387.523 33.4609C388.273 33.3672 388.875 33.3203 389.328 33.3203C389.812 33.3203 390.148 33.5 390.336 33.8594C390.539 34.2188 390.719 34.7422 390.875 35.4297L391.016 36.0391C391.547 35.0703 392.156 34.3047 392.844 33.7422C393.547 33.1641 394.445 32.875 395.539 32.875C396.445 32.875 397.07 33.1094 397.414 33.5781C397.758 34.0312 397.93 34.5469 397.93 35.125C397.93 35.4375 397.875 35.8828 397.766 36.4609C397.656 37.0234 397.5 37.5234 397.297 37.9609C397.094 38.3984 396.867 38.6172 396.617 38.6172C396.445 38.6172 396.188 38.5703 395.844 38.4766C395.375 38.3516 394.977 38.2891 394.648 38.2891C393.883 38.2891 393.211 38.5078 392.633 38.9453C392.07 39.3672 391.641 39.8438 391.344 40.375V53.7578C391.344 54.6328 390.5 55.0703 388.812 55.0703H387.664ZM403.086 55.0703C401.414 55.0703 400.578 54.6328 400.578 53.7578V24.9297C400.578 24.4766 400.781 24.1406 401.188 23.9219C401.594 23.6875 402.227 23.5703 403.086 23.5703H404.234C405.906 23.5703 406.742 24.0234 406.742 24.9297V41.4062L406.883 41.4531L411.945 33.9297C412.164 33.6016 412.469 33.3906 412.859 33.2969C413.25 33.1875 413.789 33.1328 414.477 33.1328H416.023C417.586 33.1328 418.367 33.3438 418.367 33.7656C418.367 33.9844 418.234 34.25 417.969 34.5625L412.203 42.8359L418.977 53.5703C419.211 53.9609 419.328 54.25 419.328 54.4375C419.328 54.8594 418.531 55.0703 416.938 55.0703H415.203C414.531 55.0703 413.984 55.0156 413.562 54.9062C413.141 54.7969 412.852 54.5859 412.695 54.2734L406.883 44.6875L406.742 44.7578V53.7578C406.742 54.6328 405.906 55.0703 404.234 55.0703H403.086Z" fill="white"/>
<g clip-path="url(#clip0)">
<path fill-rule="evenodd" clip-rule="evenodd" d="M42.8058 29.9081C51.6835 26.9158 64.4011 22.7764 67.5928 34.4466C67.8424 37.9377 68.391 41.9774 67.543 45.4187C66.5952 45.02 67.094 43.723 65.2488 42.1772C60.0121 37.9377 48.3419 42.0771 42.5068 44.0224C36.4605 46.1928 30.6655 48.4232 24.5023 50.3065C21.4103 51.3036 17.9192 52.4009 14.5277 52.8498C11.6849 53.2988 7.14643 53.6979 4.75258 52.1517C3.6055 51.4536 2.65818 51.0544 1.76027 49.5082C1.0123 48.3113 0.513512 46.7655 0.314165 45.1695C-0.0351134 41.2294 -0.184623 38.6861 0.364002 34.746C0.862369 34.5463 0.413839 34.1974 0.912628 35.2448C1.26148 36.0426 1.71044 36.9904 2.25906 37.5888C6.4483 41.8777 16.9216 39.1346 21.7596 37.3891L29.0408 34.8955C32.7895 33.2598 38.9566 31.1916 42.8058 29.9081V29.9081Z" fill="url(#paint0_linear)" fill-opacity="0.65098"/>
<path fill-rule="evenodd" clip-rule="evenodd" d="M10.0826 64.2827C10.282 64.0335 9.83304 63.9833 10.581 64.2329C10.581 64.2827 12.8756 65.7293 15.1694 66.5271C19.5584 68.0733 24.0969 67.5246 28.4859 66.3277C35.7384 64.3271 41.0819 60.632 48.5346 58.4476C50.7789 57.7495 54.8685 57.0509 57.1627 57.9488C58.9082 58.647 60.4544 60.9411 59.2575 62.8366C58.9082 63.2851 58.4094 63.9833 57.9609 64.2329C55.6667 66.8763 51.1282 69.7187 48.0358 71.1154C38.9093 75.205 29.184 75.0555 20.107 71.1154C16.7156 69.6689 14.9202 68.2726 12.3266 66.2276C11.2297 65.38 10.8805 64.8313 10.0826 64.2827V64.2827Z" fill="url(#paint1_linear)" fill-opacity="0.65098"/>
<path fill-rule="evenodd" clip-rule="evenodd" d="M58.034 15.844C57.8342 16.0932 58.2832 16.1434 57.5352 15.8938C57.5352 15.844 55.241 14.3975 52.9469 13.5997C48.5579 12.0535 44.0194 12.6021 39.6308 13.799C32.3778 15.7996 27.0343 19.4947 19.5816 21.6791C17.3373 22.3772 13.2477 23.0758 10.9536 22.1779C9.20802 21.4798 7.66181 19.1856 8.85874 17.2901C9.20802 16.8416 9.70681 16.1434 10.1553 15.8938C12.4499 13.2504 16.988 10.408 20.0804 9.01131C29.2073 4.92174 38.9322 5.07125 48.0092 9.01131C51.4007 10.4578 53.1961 11.8541 55.7897 13.8991C56.8869 14.7467 57.2358 15.2954 58.034 15.844V15.844Z" fill="url(#paint2_linear)" fill-opacity="0.65098"/>
</g>
<g clip-path="url(#clip1)">
<path fill-rule="evenodd" clip-rule="evenodd" d="M10.0826 15.844C10.282 16.0932 9.83304 16.1434 10.581 15.8938C10.581 15.844 12.8756 14.3975 15.1694 13.5997C19.5584 12.0535 24.0969 12.6021 28.4859 13.799C35.7384 15.7996 41.0819 19.4947 48.5346 21.6791C50.7789 22.3772 54.8685 23.0758 57.1627 22.1779C58.9082 21.4798 60.4544 19.1856 59.2575 17.2901C58.9082 16.8416 58.4094 16.1434 57.9609 15.8938C55.6667 13.2504 51.1282 10.408 48.0358 9.01131C38.9093 4.92174 29.184 5.07125 20.107 9.01131C16.7156 10.4578 14.9202 11.8541 12.3266 13.8991C11.2297 14.7467 10.8805 15.2954 10.0826 15.844V15.844Z" fill="url(#paint3_linear)" fill-opacity="0.8"/>
<path fill-rule="evenodd" clip-rule="evenodd" d="M25.1942 29.9081C16.3165 26.9158 3.59884 22.7764 0.407183 34.4466C0.157577 37.9377 -0.391049 41.9774 0.457019 45.4187C1.40476 45.02 0.905971 43.723 2.75119 42.1772C7.98784 37.9377 19.6581 42.0771 25.4932 44.0224C31.5395 46.1928 37.3345 48.4232 43.4977 50.3065C46.5897 51.3036 50.0808 52.4009 53.4722 52.8498C56.315 53.2988 60.8535 53.6979 63.2474 52.1517C64.3945 51.4536 65.3418 51.0544 66.2397 49.5082C66.9877 48.3113 67.4865 46.7655 67.6858 45.1695C68.0351 41.2294 68.1846 38.6861 67.636 34.746C67.1376 34.5463 67.5861 34.1974 67.0874 35.2448C66.7385 36.0426 66.2895 36.9904 65.7409 37.5888C61.5517 41.8777 51.0784 39.1346 46.2404 37.3891L38.9592 34.8955C35.2105 33.2598 29.0434 31.1916 25.1942 29.9081V29.9081Z" fill="url(#paint4_linear)" fill-opacity="0.8"/>
<path fill-rule="evenodd" clip-rule="evenodd" d="M58.034 64.2827C57.8342 64.0335 58.2832 63.9833 57.5352 64.2329C57.5352 64.2827 55.241 65.7293 52.9469 66.5271C48.5579 68.0733 44.0193 67.5246 39.6308 66.3277C32.3778 64.3271 27.0343 60.632 19.5816 58.4476C17.3373 57.7495 13.2477 57.0509 10.9536 57.9488C9.20802 58.647 7.66181 60.9411 8.85874 62.8366C9.20802 63.2851 9.70681 63.9833 10.1553 64.2329C12.4499 66.8763 16.988 69.7187 20.0804 71.1154C29.2073 75.205 38.9322 75.0555 48.0092 71.1154C51.4007 69.6689 53.1961 68.2726 55.7897 66.2276C56.8869 65.38 57.2358 64.8313 58.034 64.2827Z" fill="url(#paint5_linear)" fill-opacity="0.8"/>
</g>
<defs>
<linearGradient id="paint0_linear" x1="67.9792" y1="39.943" x2="0.00205458" y2="39.9544" gradientUnits="userSpaceOnUse">
<stop stop-color="#53A8E9"/>
<stop offset="1" stop-color="#54E3D1"/>
</linearGradient>
<linearGradient id="paint1_linear" x1="10.0826" y1="64.2827" x2="59.2575" y2="64.2827" gradientUnits="userSpaceOnUse">
<stop stop-color="#49C5E1"/>
<stop offset="1" stop-color="#A550F6"/>
</linearGradient>
<linearGradient id="paint2_linear" x1="58.034" y1="15.844" x2="8.85874" y2="15.8436" gradientUnits="userSpaceOnUse">
<stop stop-color="#54E3D1"/>
<stop offset="1" stop-color="#53A8E9"/>
</linearGradient>
<linearGradient id="paint3_linear" x1="10.0826" y1="15.844" x2="59.2575" y2="15.8436" gradientUnits="userSpaceOnUse">
<stop stop-color="#53A8E9"/>
<stop offset="1" stop-color="#54E3D1"/>
</linearGradient>
<linearGradient id="paint4_linear" x1="0.0207373" y1="39.943" x2="67.9979" y2="39.9544" gradientUnits="userSpaceOnUse">
<stop stop-color="#49C5E1"/>
<stop offset="1" stop-color="#A550F6"/>
</linearGradient>
<linearGradient id="paint5_linear" x1="58.034" y1="64.2827" x2="8.85874" y2="64.2827" gradientUnits="userSpaceOnUse">
<stop stop-color="#A550F6"/>
<stop offset="1" stop-color="#49C5E1"/>
</linearGradient>
<clipPath id="clip0">
<rect width="68" height="68.1267" fill="white" transform="translate(0 6)"/>
</clipPath>
<clipPath id="clip1">
<rect width="68" height="68.1267" fill="white" transform="translate(0 6)"/>
</clipPath>
</defs>
</svg>
